<svg width="49" height="48" viewBox="0 0 49 48" fill="none" xmlns="http://www.w3.org/2000/svg">
<path d="M18.2708 25.2202H19.9318V29.8477H18.2708V25.2202Z" fill="#8BB53C"/>
<path d="M13.4001 28.8805L16.4452 23.7283L17.8828 24.5434L14.8373 29.6957L13.4001 28.8805Z" fill="#8BB53C"/>
<path d="M20.1213 24.4195L21.5431 23.5801L24.7962 28.8682L23.374 29.7076L20.1213 24.4195Z" fill="#8BB53C"/>
<path d="M18.2708 23.5933H19.9318V26.0339H18.2708V23.5933Z" fill="#769C30"/>
<path d="M17.8822 24.5434L16.4447 23.7283L15.0825 26.0339H17.001L17.8822 24.5434Z" fill="#769C30"/>
<path d="M21.5429 23.5801L20.1204 24.4199L21.1135 26.0339H23.0519L21.5429 23.5801Z" fill="#769C30"/>
<path d="M19.1014 48C18.1626 48 17.3807 47.2949 17.3025 46.3785L16.0567 31.7173C15.9857 30.8831 16.2745 30.058 16.8528 29.4419C17.4314 28.8258 18.2469 28.475 19.1014 28.4746C19.9562 28.4746 20.7721 28.825 21.3508 29.4411C21.9299 30.0572 22.2186 30.8831 22.1476 31.7173L20.9019 46.3785C20.8236 47.2957 20.041 48.0008 19.1014 48Z" fill="#FD882F"/>
<path d="M31.2523 47.0043C30.3703 47.3189 29.3893 46.9185 28.9959 46.0834L22.7055 32.7249C22.3478 31.9645 22.3312 31.0922 22.6601 30.3191C22.9885 29.5465 23.6325 28.9435 24.4355 28.6571C25.2388 28.3706 26.1281 28.427 26.8868 28.8124C27.646 29.1973 28.2056 29.8762 28.4302 30.6842L32.3768 44.8786C32.6237 45.7656 32.1347 46.69 31.2523 47.0043Z" fill="#FD6F0A"/>
<path d="M7.00179 47.0041C6.11897 46.6898 5.62991 45.765 5.87728 44.8776L9.82381 30.6832C10.0485 29.8752 10.6081 29.1963 11.3672 28.8114C12.1264 28.4261 13.0153 28.3697 13.8186 28.6561C14.6215 28.9425 15.2655 29.5451 15.5944 30.3182C15.9229 31.0912 15.9062 31.9635 15.5486 32.7239L9.25811 46.0824C8.86516 46.9175 7.8842 47.3183 7.00179 47.0041Z" fill="#FD6F0A"/>
<path d="M14.1183 9.76271H12.4573V3.66102C12.4573 1.63904 14.1305 0 16.1946 0C18.2587 0 19.9319 1.63904 19.9319 3.66102V4.88136H18.2708V3.66102C18.2708 2.53761 17.3414 1.62712 16.1946 1.62712C15.0477 1.62712 14.1183 2.53761 14.1183 3.66102V9.76271Z" fill="#769C30"/>
<path d="M28.2368 11.3898L25.6033 6.23039C25.1812 5.40373 24.3186 4.88135 23.375 4.88135H14.9486C14.9486 7.12777 16.8079 8.94915 19.1012 8.94915H13.2876C11.453 8.94915 9.96558 10.4062 9.96558 12.2034V21.9661C9.96558 23.7632 11.453 25.2203 13.2876 25.2203H43.1859V11.3898H28.2368Z" fill="#FEB784"/>
<path d="M14.9487 8.94922H22.4233C23.3406 8.94922 24.0843 9.67777 24.0843 10.5763V23.5933C24.0843 24.4919 23.3406 25.2204 22.4233 25.2204H14.9487C13.1142 25.2204 11.6267 23.7633 11.6267 21.9662V12.2035C11.6267 10.4063 13.1142 8.94922 14.9487 8.94922Z" fill="#F4A876"/>
<path d="M13.2876 8.94922H20.7622C21.6795 8.94922 22.4232 9.67777 22.4232 10.5763V23.5933C22.4232 24.4919 21.6795 25.2204 20.7622 25.2204H13.2876C11.453 25.2204 9.96558 23.7633 9.96558 21.9662V12.2035C9.96558 10.4063 11.453 8.94922 13.2876 8.94922Z" fill="#FEC9A3"/>
<path d="M14.9487 12.2034H22.4233V13.8305H14.9487V12.2034Z" fill="#F7AA72"/>
<path d="M14.9487 16.2712H22.4233V17.8984H14.9487V16.2712Z" fill="#F7AA72"/>
<path d="M14.9487 20.3389H22.4233V21.966H14.9487V20.3389Z" fill="#F7AA72"/>
<path d="M12.8725 0C10.8096 0.00238347 9.13761 1.63983 9.13518 3.66102V11.053L6.88696 13.2553L8.06135 14.4057L9.13518 13.3538V15.1208L6.88696 17.3231L8.06135 18.4735L9.13518 17.4216V19.5254H10.7962V17.4216L11.87 18.4735L13.0444 17.3231L10.7962 15.1208V13.3538L11.87 14.4057L13.0444 13.2553L10.7962 11.053V3.66102C10.7962 2.53761 11.7256 1.62712 12.8725 1.62712C14.0193 1.62712 14.9487 2.53761 14.9487 3.66102V8.94915H16.6098V3.66102C16.6073 1.63983 14.9358 0.00238347 12.8725 0Z" fill="#8BB53C"/>
<path d="M29.0674 16.6081L30.1412 17.66L31.3156 16.5095L29.0674 14.3072V3.66102C29.0674 1.63904 27.3942 0 25.3301 0C23.266 0 21.5928 1.63904 21.5928 3.66102V4.88136H23.2538V3.66102C23.2538 2.53761 24.1832 1.62712 25.3301 1.62712C26.4769 1.62712 27.4063 2.53761 27.4063 3.66102V14.3072L25.1581 16.5095L26.3325 17.66L27.4063 16.6081V18.375L25.1581 20.5773L26.3325 21.7278L27.4063 20.6758V22.7797H29.0674V20.6758L30.1412 21.7278L31.3156 20.5773L29.0674 18.375V16.6081Z" fill="#8BB53C"/>
<path d="M12.042 35.8144L13.7987 36.4409L14.4962 34.9588L12.6109 34.2866L12.042 35.8144Z" fill="#F05B11"/>
<path d="M10.6939 37.0666L8.35286 36.2312L8.06778 36.9967L7.84961 37.7832L10.125 38.5944L10.6939 37.0666Z" fill="#F05B11"/>
<path d="M8.41333 43.1791L10.2986 43.8719L10.9973 42.3906L8.99728 41.6553L8.41333 43.1791Z" fill="#F05B11"/>
<path d="M19.1012 32.5422H16.1255L16.2634 34.1694H19.1012V32.5422Z" fill="#FD6F0A"/>
<path d="M19.1013 36.6101V38.2372H21.5928L21.7315 36.6101H19.1013Z" fill="#FD6F0A"/>
<path d="M19.1014 39.8645H16.7485L16.8864 41.4916H19.1014V39.8645Z" fill="#FD6F0A"/>
<path d="M25.8343 32.4871L23.0938 33.5485L23.7904 35.0286L26.4458 33.9994L25.8343 32.4871Z" fill="#F05B11"/>
<path d="M27.5616 37.0657L25.1523 37.9205L25.8507 39.4039L28.1273 38.5951L27.5616 37.0657Z" fill="#F05B11"/>
<path d="M29.2924 41.6429L31.26 40.8611L30.8204 39.2793L28.6687 40.1346L29.2924 41.6429Z" fill="#F05B11"/>
</svg>
