<svg width="50" height="53" viewBox="0 0 50 53" fill="none" xmlns="http://www.w3.org/2000/svg">
<path d="M5.69193 19.7996H2.33943C1.49818 19.7996 0.816162 20.4947 0.816162 21.3521C0.816162 22.2095 1.49818 22.9047 2.33943 22.9047H4.16867V33.2374C4.16867 34.0948 4.85068 34.7899 5.69193 34.7899C6.53318 34.7899 7.2152 34.0948 7.2152 33.2374V21.3521C7.2152 20.4947 6.53318 19.7996 5.69193 19.7996Z" fill="#00465F"/>
<path d="M16.2636 19.6772C14.5483 19.6772 12.9589 20.5121 11.7884 22.0281C10.7024 23.4346 10.1042 25.2833 10.1042 27.2338C10.1042 29.1842 10.7024 31.0329 11.7884 32.4394C12.9589 33.9553 14.5483 34.7902 16.2635 34.7902C17.9787 34.7902 19.5682 33.9553 20.7388 32.4394C21.8249 31.0329 22.4229 29.1842 22.4229 27.2338C22.4229 25.2833 21.8248 23.4346 20.7388 22.0281C19.5683 20.5121 17.9789 19.6772 16.2636 19.6772ZM16.2636 31.6849C14.5762 31.6849 13.1508 29.6465 13.1508 27.2336C13.1508 24.8207 14.5762 22.7823 16.2636 22.7823C17.951 22.7823 19.3765 24.8207 19.3765 27.2336C19.3765 29.6465 17.951 31.6849 16.2636 31.6849Z" fill="#00465F"/>
<path d="M31.2082 19.6772C29.4929 19.6772 27.9035 20.5121 26.7329 22.0281C25.647 23.4346 25.0488 25.2833 25.0488 27.2338C25.0488 29.1842 25.647 31.0329 26.7329 32.4394C27.9035 33.9553 29.493 34.7902 31.2082 34.7902C32.9234 34.7902 34.5129 33.9553 35.6834 32.4394C36.7694 31.0329 37.3676 29.1842 37.3676 27.2338C37.3676 25.2833 36.7694 23.4346 35.6834 22.0281C34.5129 20.5121 32.9235 19.6772 31.2082 19.6772ZM31.2082 31.6849C29.5208 31.6849 28.0954 29.6465 28.0954 27.2336C28.0954 24.8207 29.5208 22.7823 31.2082 22.7823C32.8956 22.7823 34.321 24.8207 34.321 27.2336C34.321 29.6465 32.8956 31.6849 31.2082 31.6849Z" fill="#001E2A"/>
<path d="M47.5889 19.8861C46.8297 19.516 45.9204 19.8429 45.5573 20.6163L39.9079 32.6483C39.5448 33.4217 39.8654 34.3488 40.6243 34.719C40.8366 34.8225 41.0604 34.8715 41.2809 34.8715C41.8491 34.8715 42.3944 34.546 42.656 33.9888L48.3054 21.9569C48.6685 21.1834 48.3478 20.2562 47.5889 19.8861Z" fill="#001E2A"/>
<path d="M40.5631 22.8393C41.4043 22.8393 42.0863 22.1441 42.0863 21.2867C42.0863 20.4292 41.4043 19.7341 40.5631 19.7341C39.7218 19.7341 39.0398 20.4292 39.0398 21.2867C39.0398 22.1441 39.7218 22.8393 40.5631 22.8393Z" fill="#001E2A"/>
<path d="M47.6606 34.8712C48.5019 34.8712 49.1838 34.1761 49.1838 33.3187C49.1838 32.4612 48.5019 31.7661 47.6606 31.7661C46.8193 31.7661 46.1373 32.4612 46.1373 33.3187C46.1373 34.1761 46.8193 34.8712 47.6606 34.8712Z" fill="#001E2A"/>
<path d="M12.1366 13.8103C11.2363 13.901 10.5584 12.9926 10.8798 12.1308L12.5093 7.76114C14.7893 1.54604 21.8223 -1.59251 27.7002 0.806501L27.6994 0.80619C31.5439 2.63666 33.3967 7.23544 31.8556 11.342C31.2252 13.0217 30.1087 14.3785 28.7292 15.3053C26.3465 16.9062 23.3055 17.0638 20.7291 15.8126C16.9088 13.9574 14.1416 13.6085 12.1366 13.8103Z" fill="#8CEA79"/>
<path d="M12.5655 11.7115L11.0248 13.2919C11.2637 13.6358 11.67 13.8573 12.1366 13.8104C14.1417 13.6086 16.9087 13.9575 20.7292 15.8128C23.3055 17.0639 26.3466 16.9064 28.7293 15.3056C30.1088 14.3787 31.2253 13.0218 31.8556 11.3422C32.3807 9.94302 32.4957 8.82031 32.2883 7.43584C25.4017 4.96686 17.7309 6.41301 12.5655 11.7115Z" fill="#00E1C0"/>
<path d="M32.3975 5.3881C31.6651 3.42411 30.2161 1.74818 28.2376 0.80619L28.2384 0.806501C22.3604 -1.59251 15.3275 1.54604 13.0475 7.76113L11.9037 10.8284L12.5497 13.0152C17.8755 7.55216 25.4185 6.45688 32.3975 5.3881Z" fill="#8CEA79"/>
<path d="M38.2678 7.60296L33.8092 5.87569C33.3422 5.69476 32.8713 5.53247 32.3975 5.38818C32.7895 6.43958 32.9758 7.57315 32.9266 8.72194L37.2289 10.3887C37.9837 10.6809 38.8281 10.2944 39.115 9.52524C39.4018 8.75589 39.0225 7.89526 38.2678 7.60296Z" fill="#005357"/>
<path d="M24.1981 0V6.89274C26.9082 6.21893 29.6952 5.80201 32.3975 5.3881C31.6652 3.42412 30.2161 1.74704 28.2376 0.805053L28.2384 0.805364C26.9272 0.270249 25.5586 0.0113854 24.1981 0V0Z" fill="#00DD7B"/>
<path d="M24.2101 6.36925V16.616C25.9736 16.76 27.7606 16.3271 29.2799 15.3062C30.6595 14.3793 31.7759 13.0225 32.4063 11.3428C32.9314 9.94366 33.0463 8.82095 32.839 7.43648C30.0188 6.42556 27.0673 6.07158 24.2101 6.36925Z" fill="#00BD9F"/>
<path d="M32.3844 5.42453C25.0432 3.18999 17.0125 4.98744 11.5564 10.584L11.3919 10.7553L10.8737 12.1553C10.5443 13.0383 11.2192 13.9215 12.1793 13.8102C12.3376 13.7919 12.5017 13.7822 12.6698 13.7734L13.6813 12.7359C18.6653 7.62358 26.5717 5.80677 32.7664 8.53534L32.9265 8.59734C32.9769 7.4205 32.7861 6.5017 32.3844 5.42453Z" fill="#00BD9F"/>
<path d="M24.1981 4.57903L24.2103 7.43563C27.0507 7.04139 29.9847 7.58209 32.7704 8.66133L32.936 8.72529C32.9851 7.5765 32.7896 6.43962 32.3975 5.38812C29.7031 4.56785 26.9135 4.25661 24.1981 4.57903Z" fill="#009985"/>
<path d="M36.2853 39.1836C37.1857 39.093 37.8635 40.0013 37.5421 40.8632L35.9126 45.2328C33.6326 51.4479 26.5996 54.5865 20.7217 52.1875L20.7225 52.1878C16.878 50.3573 15.0252 45.7585 16.5663 41.6519C17.1968 39.9721 18.3132 38.6154 19.6927 37.6885C22.0754 36.0876 25.1164 35.9301 27.6928 37.1812C31.5131 39.0366 34.2802 39.3855 36.2853 39.1836Z" fill="#8CEA79"/>
<path d="M35.8559 41.2825L37.3966 39.7021C37.1577 39.3582 36.7514 39.1367 36.2849 39.1836C34.2797 39.3854 31.5127 39.0365 27.6922 37.1812C25.1159 35.9302 22.0748 36.0876 19.6921 37.6885C18.3126 38.6154 17.1961 39.9722 16.5658 41.6518C16.0407 43.051 15.9257 44.1737 16.1331 45.5582C23.0198 48.0272 30.6904 46.581 35.8559 41.2825Z" fill="#00BD9F"/>
<path d="M16.0237 47.6059C16.7561 49.5698 18.2051 51.2458 20.1836 52.1878L20.1828 52.1875C26.5593 54.5797 33.9819 51.5197 35.9124 45.2328L37.0292 42.2387L35.8715 39.9788C30.5457 45.4418 23.0027 46.5371 16.0237 47.6059Z" fill="#00DD7B"/>
<path d="M10.1533 45.391L14.6119 47.1183C15.0789 47.2992 15.5498 47.4615 16.0236 47.6058C15.6315 46.5543 15.4453 45.4208 15.4944 44.2721L11.1921 42.6053C10.4374 42.3132 9.59299 42.6996 9.30611 43.4688C9.01923 44.2381 9.39852 45.0987 10.1533 45.391Z" fill="#007779"/>
<path d="M24.2232 52.994V46.1013C21.5131 46.7751 18.7262 47.192 16.0238 47.606C16.7562 49.5699 18.2052 51.247 20.1837 52.189L20.1829 52.1887C21.4941 52.7238 22.8627 52.9827 24.2232 52.994Z" fill="#8CEA79"/>
<path d="M24.2112 46.6246V36.3778C22.4476 36.2338 20.6607 36.6667 19.1414 37.6876C17.7618 38.6145 16.6453 39.9713 16.015 41.651C15.4899 43.0501 15.3749 44.1728 15.5823 45.5573C18.4024 46.5683 21.3539 46.9223 24.2112 46.6246Z" fill="#00E1C0"/>
<path d="M16.0367 47.5695C23.3779 49.8041 31.4086 48.0066 36.8647 42.4101L37.0292 42.2388L37.5474 40.8388C37.8768 39.9558 37.202 39.0726 36.2418 39.1838C36.0835 39.2022 35.9194 39.2119 35.7513 39.2207L34.7398 40.2581C29.7558 45.3705 21.8494 47.1873 15.6548 44.4587L15.4946 44.3967C15.4442 45.5735 15.6351 46.4923 16.0367 47.5695Z" fill="#009985"/>
<path d="M24.2231 48.4151L24.2109 45.5585C21.3705 45.9527 18.4365 45.412 15.6508 44.3328L15.4852 44.2688C15.4361 45.4176 15.6316 46.5545 16.0237 47.606C18.718 48.4261 21.5076 48.7375 24.2231 48.4151Z" fill="#00BD9F"/>
</svg>
