<svg width="85" height="91" viewBox="0 0 85 91" fill="none" xmlns="http://www.w3.org/2000/svg">
<rect width="85" height="91" rx="10" fill="white"/>
<g clip-path="url(#clip0_171_146)">
<path d="M69.0002 48.5379C69.0002 55.7362 64.3472 61.6269 58.6603 61.6269H52.5937C51.018 61.6269 49.5206 61.1745 48.181 60.3665C44.3129 58.0378 42.2539 53.2058 42.2539 48.5379C42.2539 45.1186 43.524 42.0572 45.4973 40.073C46.6323 38.9307 47.5247 37.4847 48.1317 35.8665C48.5692 34.7015 48.8591 33.4488 48.9877 32.1529C49.0382 31.6478 49.0637 31.1351 49.0637 30.6191C49.0637 26.0499 52.0179 22.312 55.6272 22.312C57.4323 22.312 59.0732 23.2461 60.2628 24.7523C61.4524 26.2581 62.1904 28.3345 62.1904 30.6191C62.1904 34.2907 63.4872 37.7884 65.7576 40.073C66.7435 41.0653 67.5542 42.3265 68.1187 43.7672C68.6828 45.2088 69.0002 46.8282 69.0002 48.5379Z" fill="#35E298"/>
<path d="M55.0692 44.3885C54.9887 46.864 54.2759 49.289 53.0583 51.4996L48.1814 60.3667C44.3129 58.0381 42.2539 53.206 42.2539 48.5381C42.2539 45.1188 43.524 42.0574 45.4977 40.0732C46.6323 38.9309 47.5247 37.4849 48.1321 35.8667C48.5696 34.7017 48.8591 33.449 48.9877 32.1531C50.9205 33.1907 52.9831 35.1211 54.2168 38.7045C54.8529 40.554 55.1327 42.4747 55.0692 44.3885Z" fill="#1AB975"/>
<path d="M63.6256 48.9884C63.6256 53.2912 60.1376 56.7796 55.8349 56.7796C51.5321 56.7796 48.0437 53.2912 48.0437 48.9884C48.0437 44.6857 51.5321 41.1973 55.8349 41.1973C60.1376 41.1973 63.6256 44.6857 63.6256 48.9884Z" fill="#AE583E"/>
<path d="M54.8632 41.2573C47.9863 42.1129 45.5949 50.8976 51.0554 55.141L53.0582 51.4993C54.2753 49.2887 54.9886 46.8638 55.069 44.3883C55.1034 43.3422 55.0359 42.2945 54.8632 41.2573Z" fill="#7C3F2C"/>
<path d="M32.812 28.0241C32.4048 26.1701 30.305 19.4566 21.433 20.9838C21.1746 21.0283 21.0302 21.3081 21.143 21.5451C22.0621 23.4751 25.9602 30.6282 32.4489 28.6383C32.7113 28.5579 32.8706 28.2922 32.812 28.0241Z" fill="#1ED688"/>
<path d="M32.4482 28.638C25.9603 30.6286 22.0623 23.4755 21.1432 21.5451C21.0308 21.3078 21.1743 21.028 21.4327 20.9839C22.1921 20.8533 22.9033 20.7825 23.5673 20.7651C24.9284 23.1666 27.9756 27.3586 32.5408 27.0355C32.6702 27.4326 32.7571 27.7735 32.8121 28.0246C32.8712 28.2927 32.711 28.5575 32.4482 28.638Z" fill="#1AB975"/>
<path d="M33.2484 33.9305C32.804 33.9305 32.4441 33.5706 32.4441 33.1262V21.638C32.4441 21.1936 32.804 20.8337 33.2484 20.8337C33.6928 20.8337 34.0526 21.1936 34.0526 21.638V33.1262C34.0526 33.5706 33.6928 33.9305 33.2484 33.9305Z" fill="#C0694E"/>
<path d="M48.4748 51.4991L42.8138 61.792C41.3496 64.1906 38.0185 65.062 35.3902 63.6912C34.0433 62.9889 32.4537 62.9889 31.1052 63.6912C28.5375 65.0305 25.1862 64.2517 23.6828 61.792L18.0206 51.4991C15.7016 47.2844 15.4687 42.7625 16.8625 38.7044C18.6021 33.6479 21.9958 31.8836 24.3403 31.2743C25.4163 30.9945 26.2723 30.9581 26.6468 30.9581C26.7794 30.9581 26.8514 30.9621 26.8514 30.9621C27.9112 30.9621 28.9269 31.1404 29.8634 31.4651C30.7987 31.7902 31.6568 32.2633 32.402 32.8521C32.6454 33.0603 32.9471 33.1655 33.2483 33.1655C33.55 33.1655 33.8512 33.0603 34.0946 32.8521C34.8403 32.2633 35.6971 31.7902 36.6336 31.4651C37.5697 31.1404 38.5846 30.9621 39.6453 30.9621C39.6453 30.9621 46.8133 30.5052 49.6333 38.7044C51.038 42.7888 50.7813 47.3115 48.4748 51.4991Z" fill="#C42D2D"/>
<path d="M48.4748 51.4991L42.8138 61.792C41.3496 64.1906 38.0185 65.062 35.3902 63.6912C34.0433 62.9889 32.4538 62.9889 31.1052 63.6912C30.3826 64.0685 29.6095 64.2719 28.8542 64.3253C28.8109 64.2392 24.3157 54.353 23.1693 51.8326C19.7416 44.297 21.0707 35.8997 24.3403 31.2743C25.4163 30.9945 26.2723 30.9581 26.6468 30.9581C26.7794 30.9581 26.8514 30.9621 26.8514 30.9621C27.9112 30.9621 28.927 31.1404 29.8634 31.4651C30.7987 31.7902 31.6568 32.2633 32.402 32.8521C32.6454 33.0603 32.9471 33.1655 33.2483 33.1655C33.55 33.1655 33.8512 33.0603 34.0946 32.8521C34.8403 32.2633 35.6971 31.7902 36.6336 31.4651C37.5697 31.1404 38.5846 30.9621 39.6453 30.9621C39.6453 30.9621 46.8133 30.5052 49.6333 38.7044C51.0381 42.7888 50.7813 47.3115 48.4748 51.4991Z" fill="#F44545"/>
<path d="M23.0367 54.0611C22.1338 54.5375 21.7881 55.6555 22.2644 56.5589C22.8236 57.6179 23.53 58.5378 24.3117 59.334L18.1448 58.647C17.1303 58.5341 16.216 59.2648 16.1028 60.2798C15.99 61.2943 16.7211 62.2085 17.7356 62.3218L23.9021 63.0088C22.9643 63.6137 22.0727 64.3557 21.2943 65.2655C20.6308 66.0415 20.7218 67.2084 21.4977 67.872C22.2737 68.5355 23.4407 68.4446 24.1042 67.6686C26.2166 65.1988 30.0463 64.1394 33.2868 64.0334C34.5731 63.9918 35.4275 62.6756 34.9354 61.4839C34.713 60.9429 34.2338 60.5187 33.6297 60.3837C33.5711 60.3703 27.7119 58.9591 25.5344 54.8331C25.0577 53.9301 23.9397 53.5844 23.0367 54.0611Z" fill="#1AB975"/>
<path d="M68.7953 66.1607C68.5312 68.529 66.5309 70.3224 64.1476 70.3268C50.4827 70.3535 60.0332 70.3353 38.0394 70.3773C33.4702 70.3858 29.9102 66.415 30.4164 61.8749C30.528 60.8773 30.8253 59.9493 31.2672 59.1192C32.5777 56.6607 35.1705 55.0647 38.0139 55.0647C38.578 55.0647 39.153 55.127 39.7288 55.2592C59.1073 59.6865 60.6107 60.0298 61.8694 60.3173L63.4505 60.6788L65.1815 61.0747C67.0703 61.5049 68.4508 63.033 68.7585 64.8619C68.8305 65.2812 68.8446 65.7179 68.7953 66.1607Z" fill="#FFA90B"/>
<path d="M68.7586 64.8619C67.9005 65.984 66.5492 66.6993 65.0454 66.7013C51.3817 66.7284 60.9318 66.7102 38.9384 66.7519C34.6631 66.7595 31.2726 63.2853 31.2673 59.1192C32.5779 56.6607 35.1702 55.0647 38.0136 55.0647C38.3193 55.0647 38.6275 55.0829 38.9372 55.1217C39.2 55.1528 39.4649 55.1989 39.7289 55.2592L40.5194 55.4391C60.988 60.1167 42.7406 55.9466 61.8695 60.3173L63.4502 60.6788L65.1816 61.0747C67.0704 61.5049 68.4509 63.033 68.7586 64.8619Z" fill="#FFB52D"/>
<path d="M63.4503 60.6791L62.8401 66.8969C62.7941 67.3078 62.4467 67.6123 62.0423 67.6123C62.012 67.6123 61.9821 67.6102 61.9522 67.607C61.5102 67.5577 61.1928 67.161 61.2409 66.719L61.8697 60.3176L63.4503 60.6791Z" fill="#F29500"/>
<path d="M41.4828 65.2748L40.9421 70.3718L39.3235 70.375L39.8835 65.0969C39.9329 64.655 40.3295 64.3363 40.7715 64.3857C41.2135 64.435 41.5321 64.8329 41.4828 65.2748Z" fill="#F29500"/>
<path d="M56.2049 66.915L55.8479 70.3431L54.2292 70.3464L54.6057 66.7371C54.655 66.2951 55.0529 65.9777 55.4949 66.027C55.9356 66.0764 56.2543 66.473 56.2049 66.915Z" fill="#F29500"/>
<path d="M49.836 57.5685L49.595 60.27C49.5489 60.6809 49.2012 60.9858 48.7968 60.9858C48.7669 60.9858 48.737 60.9833 48.7066 60.9801C48.2647 60.9308 47.9464 60.5341 47.9958 60.0921L48.2542 57.207L49.836 57.5685Z" fill="#F29500"/>
<path d="M46.6763 67.0908L46.3382 70.3612L44.72 70.3644L45.077 66.9128C45.1264 66.4709 45.5255 66.1522 45.9662 66.2016C46.407 66.2509 46.7256 66.6488 46.6763 67.0908Z" fill="#F29500"/>
<path d="M40.5195 55.4392L39.9627 60.4335C39.9166 60.8443 39.568 61.1488 39.1637 61.1488C39.1337 61.1488 39.1038 61.1468 39.0735 61.1435C38.6319 61.0942 38.3141 60.6959 38.3634 60.2552L38.93 55.1699C38.932 55.1542 38.9344 55.138 38.9376 55.1218C39.2001 55.153 39.4653 55.1991 39.729 55.2593L40.5195 55.4392Z" fill="#F29500"/>
</g>
<defs>
<clipPath id="clip0_171_146">
<rect width="53" height="53" fill="white" transform="translate(16 19)"/>
</clipPath>
</defs>
</svg>
