<svg width="51" height="51" viewBox="0 0 51 51" fill="none" xmlns="http://www.w3.org/2000/svg">
<path d="M22.3125 15.9368V12.7493H3.1875C1.43119 12.7493 0 14.1805 0 15.9368V22.3118H22.9851C22.542 20.3642 22.3125 18.2668 22.3125 15.9368Z" fill="#F47606"/>
<path d="M50.8693 28.6868C48.6954 32.0368 45.3804 34.8865 40.6311 37.615C39.9011 38.0325 39.0788 38.2493 38.25 38.2493C37.4212 38.2493 36.5989 38.0325 35.8785 37.6213C31.1291 34.8865 27.8141 32.0336 25.6371 28.6868H0V44.6243C0 46.3838 1.43119 47.8118 3.1875 47.8118H47.8125C49.572 47.8118 51 46.3838 51 44.6243V28.6868H50.8693ZM14.3438 38.2493H7.96875C7.089 38.2493 6.375 37.5353 6.375 36.6555C6.375 35.7758 7.089 35.0618 7.96875 35.0618H14.3438C15.2235 35.0618 15.9375 35.7758 15.9375 36.6555C15.9375 37.5353 15.2235 38.2493 14.3438 38.2493Z" fill="#F47606"/>
<path d="M50.0342 8.09858L38.8779 3.31733C38.4731 3.1452 38.0237 3.1452 37.6189 3.31733L26.4626 8.09858C25.8793 8.3472 25.5 8.92414 25.5 9.56164V15.9366C25.5 24.7054 28.7417 29.8309 37.4563 34.8513C37.7018 34.9915 37.9759 35.0616 38.25 35.0616C38.5241 35.0616 38.7982 34.9915 39.0437 34.8513C47.7583 29.8437 51 24.7182 51 15.9366V9.56164C51 8.92414 50.6207 8.3472 50.0342 8.09858ZM44.2776 15.3406L37.9026 23.3093C37.5966 23.6854 37.1376 23.9054 36.6562 23.9054C36.6339 23.9054 36.6084 23.9054 36.5893 23.9054C36.0825 23.8831 35.6139 23.6217 35.3302 23.1978L32.1427 18.4165C31.6551 17.6834 31.8527 16.6953 32.5858 16.2076C33.3126 15.7231 34.3039 15.9143 34.7948 16.6506L36.7742 19.6182L41.7849 13.3516C42.3364 12.6663 43.3404 12.5579 44.0258 13.103C44.7143 13.648 44.8226 14.6521 44.2776 15.3406Z" fill="#F47606"/>
</svg>
