<svg width="51" height="51" viewBox="0 0 51 51" fill="none" xmlns="http://www.w3.org/2000/svg">
<g clip-path="url(#clip0_41_69)">
<path d="M12.3907 22.212C11.4584 22.212 10.6714 23.2389 10.6714 24.4532C10.6714 25.6684 11.4583 26.6954 12.3907 26.6954C13.3231 26.6954 14.111 25.6684 14.111 24.4532C14.111 23.2389 13.3231 22.212 12.3907 22.212Z" fill="#F47606"/>
<path d="M27.468 34.0643C26.5357 34.0643 25.7487 35.0913 25.7487 36.3065C25.7487 37.5208 26.5356 38.5477 27.468 38.5477C28.4004 38.5477 29.1884 37.5208 29.1884 36.3065C29.1884 35.0913 28.4004 34.0643 27.468 34.0643Z" fill="#F47606"/>
<path d="M37.2391 15.9067C22.0902 1.96753 22.865 2.49994 21.6607 2.03208C19.9491 1.35314 17.9125 1.70815 16.5057 3.00227L2.48137 15.9067C0.904453 17.357 0 19.4209 0 21.5705V44.4218C0 47.1143 2.17955 49.3057 4.85805 49.3057H34.8613C37.5399 49.3057 39.7193 47.1143 39.7193 44.4218V21.5705C39.7194 19.4209 38.8149 17.357 37.2391 15.9067ZM18.4143 11.0079C18.5048 10.1395 19.3013 9.5228 20.1924 9.69004C21.0447 9.86775 21.5247 10.6855 21.3658 11.4472C21.197 12.2586 20.4337 12.7754 19.6087 12.6206C18.8208 12.4562 18.3399 11.7404 18.4143 11.0079ZM7.68307 24.4532C7.68307 21.5695 9.79489 19.2237 12.3908 19.2237C14.9877 19.2237 17.0994 21.5695 17.0994 24.4532C17.0994 27.3368 14.9876 29.6836 12.3908 29.6836C9.79489 29.6836 7.68307 27.3368 7.68307 24.4532ZM16.2488 40.3568C15.1929 40.3568 14.456 39.2742 14.8722 38.2839L22.1459 20.9479C22.4656 20.1869 23.3412 19.8283 24.1022 20.148C24.8632 20.4668 25.2208 21.3433 24.902 22.1044L17.6274 39.4404C17.3873 40.0121 16.8335 40.3568 16.2488 40.3568ZM27.4681 41.5362C24.8722 41.5362 22.7604 39.1904 22.7604 36.3067C22.7604 33.423 24.8723 31.0762 27.4681 31.0762C30.064 31.0762 32.1767 33.423 32.1767 36.3067C32.1767 39.1904 30.064 41.5362 27.4681 41.5362Z" fill="#F47606"/>
<path d="M50.625 32.3161C45.7601 18.1543 43.058 10.2803 43.0196 10.1909C42.1739 8.23256 40.5303 6.70953 38.5122 6.01326C38.3963 5.97392 39.0797 6.13987 28.2432 3.56885L39.2613 13.7071C41.4517 15.7212 42.7078 18.587 42.7078 21.5703V40.9343L48.083 38.6333C50.5144 37.5815 51.645 34.7575 50.625 32.3161Z" fill="#F47606"/>
</g>
<defs>
<clipPath id="clip0_41_69">
<rect width="51" height="51" fill="white"/>
</clipPath>
</defs>
</svg>
