<svg width="45" height="51" viewBox="0 0 45 51" fill="none" xmlns="http://www.w3.org/2000/svg">
<path d="M10.459 20.918C7.98728 20.918 5.97656 22.9287 5.97656 25.4004V37.5527C5.97656 40.0244 7.98728 42.0352 10.459 42.0352C12.9307 42.0352 14.9414 40.0244 14.9414 37.5527V25.4004C14.9414 22.9287 12.9307 20.918 10.459 20.918Z" fill="#F47606"/>
<path d="M2.98828 25.4001C2.98828 24.9691 3.04516 24.5527 3.11558 24.1416C1.31484 24.7236 0 26.3963 0 28.3883V34.5641C0 36.5562 1.31484 38.2289 3.11558 38.8109C3.04516 38.3998 2.98828 37.9834 2.98828 37.5524V25.4001Z" fill="#F47606"/>
<path d="M34.3652 20.918C31.8935 20.918 29.8828 22.9287 29.8828 25.4004V37.5527C29.8828 40.0244 31.8935 42.0352 34.3652 42.0352C34.8145 42.0352 35.24 41.9487 35.6494 41.8252C35.0932 43.6688 33.3995 45.0234 31.377 45.0234H26.6193C26.0004 43.288 24.3575 42.0352 22.4121 42.0352C19.9404 42.0352 17.9297 44.0459 17.9297 46.5176C17.9297 48.9893 19.9404 51 22.4121 51C24.3575 51 26.0004 49.7471 26.6193 48.0117H31.377C35.4961 48.0117 38.8477 44.6602 38.8477 40.541V37.5527V25.4004C38.8477 22.9287 36.8369 20.918 34.3652 20.918Z" fill="#F47606"/>
<path d="M41.7086 24.1416C41.779 24.5527 41.8359 24.9691 41.8359 25.4001V37.5524C41.8359 37.9834 41.779 38.3998 41.7086 38.8109C43.5094 38.2289 44.8242 36.5562 44.8242 34.5641V28.3883C44.8242 26.3963 43.5094 24.7236 41.7086 24.1416Z" fill="#F47606"/>
<path d="M22.4121 0C10.0534 0 0 10.0534 0 22.4121V22.4503C0.890209 21.7763 1.92017 21.2831 3.05671 21.0623C3.75507 10.982 12.1577 2.98828 22.4121 2.98828C32.6665 2.98828 41.0691 10.982 41.7675 21.0622C42.9039 21.283 43.9339 21.7763 44.8242 22.4502V22.4121C44.8242 10.0534 34.7708 0 22.4121 0Z" fill="#F47606"/>
</svg>
