<svg width="51" height="51" viewBox="0 0 51 51" fill="none" xmlns="http://www.w3.org/2000/svg">
<g clip-path="url(#clip0_41_77)">
<path d="M36.7027 12.6029H40.7038C42.6862 12.5239 42.6847 9.69281 40.7038 9.61461H38.4665L38.7686 7.80172H40.7038C42.6862 7.72273 42.6847 4.89163 40.7038 4.81344H39.2667L39.5688 3.00055H42.3041C44.2865 2.92156 44.285 0.0904614 42.3041 0.0122681H38.3031C37.5726 0.0122681 36.9493 0.540297 36.8292 1.26077L35.2289 10.8631C35.0771 11.774 35.7808 12.6029 36.7027 12.6029Z" fill="#F47606"/>
<path d="M27.1004 12.6029H31.1014C33.0838 12.5239 33.0823 9.69281 31.1014 9.61461H28.8641L29.1663 7.80172H31.1014C33.0838 7.72273 33.0823 4.89163 31.1014 4.81344H29.6644L29.9666 3.00055H32.7018C34.6842 2.92156 34.6827 0.0904614 32.7018 0.0122681H28.7009C27.9704 0.0122681 27.3471 0.540297 27.2271 1.26077L25.6266 10.8631C25.4748 11.774 26.1785 12.6029 27.1004 12.6029Z" fill="#F47606"/>
<path d="M15.6519 12.5827C16.812 12.776 17.302 11.7708 17.3714 11.3545L17.6164 9.88444L20.558 12.2694C21.2379 12.8205 22.1723 12.651 22.6596 12.0497C23.1794 11.4088 23.081 10.4679 22.44 9.94819L20.7794 8.60207H22.1655C22.8958 8.60207 23.5192 8.07404 23.6393 7.35366L24.5731 1.75233C24.7249 0.841301 24.0213 0.0124512 23.0993 0.0124512H17.498C16.7675 0.0124512 16.1442 0.540481 16.0242 1.26096L15.0969 6.82414C15.0965 6.82613 15.0963 6.82822 15.0959 6.83022C15.0951 6.8342 15.0946 6.83818 15.0939 6.84217C15.0906 6.8604 15.0873 6.87872 15.0847 6.89715L14.4236 10.8633C14.288 11.6772 14.8379 12.4471 15.6519 12.5827ZM18.7637 3.00073H21.3354L20.8998 5.61379H18.3281L18.7637 3.00073Z" fill="#F47606"/>
<path d="M6.84985 12.5827C8.0099 12.776 8.49988 11.7707 8.5693 11.3545L9.02801 8.60207H11.0964C13.0788 8.52308 13.0773 5.69198 11.0964 5.61379H9.52605L9.96154 3.00073H12.6968C14.6792 2.92174 14.6777 0.0906445 12.6968 0.0124512H8.69581C7.96537 0.0124512 7.34202 0.540481 7.22199 1.26096L5.62166 10.8633C5.4859 11.6772 6.03584 12.4471 6.84985 12.5827Z" fill="#F47606"/>
<path d="M12.6969 41.4101C10.0495 41.4101 7.89575 43.5638 7.89575 46.2113C8.15952 52.5807 17.2353 52.5788 17.4981 46.2113C17.4981 43.5638 15.3442 41.4101 12.6969 41.4101Z" fill="#F47606"/>
<path d="M38.3031 41.4101C35.6557 41.4101 33.502 43.5638 33.502 46.2113C33.7657 52.5807 42.8415 52.5788 43.1043 46.2113C43.1043 43.5638 40.9505 41.4101 38.3031 41.4101Z" fill="#F47606"/>
<path d="M42.998 20.9354V32.0202H51V30.3136C51 25.5857 47.5268 21.6542 42.998 20.9354Z" fill="#F47606"/>
<path d="M40.0098 33.5143V20.8174H36.5964V38.6123C41.3699 37.4781 46.1549 41.2958 46.0925 46.2111H49.5058C50.331 46.2111 51 45.5421 51 44.717V35.0084H41.5039C40.6787 35.0084 40.0098 34.3395 40.0098 33.5143Z" fill="#F47606"/>
<path d="M33.6082 17.5104C33.6082 16.6852 32.9392 16.0162 32.1141 16.0162H1.49414C0.668977 16.0162 0 16.6852 0 17.5104V44.717C0 45.5421 0.668977 46.2111 1.49414 46.2111H4.90746C5.33657 35.8749 20.0612 35.8828 20.4864 46.2111H30.5136C30.5136 43.6779 31.7298 41.424 33.6082 40.0005V17.5104Z" fill="#F47606"/>
</g>
<defs>
<clipPath id="clip0_41_77">
<rect width="51" height="51" fill="white"/>
</clipPath>
</defs>
</svg>
